HIERARCHY
ROOT Hips
{
	OFFSET -0.179506 -22.333345 2.821913
	CHANNELS 6 Xposition Yposition Zposition Zrotation Yrotation Xrotation 
	JOINT LeftUpLeg
	{
		OFFSET 6.951974 -9.140623 -0.681533
		CHANNELS 3 Zrotation Yrotation Xrotation
		JOINT LeftLeg
		{
			OFFSET 3.427654 -37.519855 -0.449580
			CHANNELS 3 Zrotation Yrotation Xrotation
			JOINT LeftFoot
			{
				OFFSET -1.359570 -39.796059 -4.369333
				CHANNELS 3 Zrotation Yrotation Xrotation
				JOINT LeftToe
				{
					OFFSET 2.635814 -5.579078 11.928840
					CHANNELS 3 Zrotation Yrotation Xrotation
					End Site
					{
						OFFSET 0.000000 0.000000 0.000000
					}
				}
			}
		}
	}
	JOINT RightUpLeg
	{
		OFFSET -6.767048 -9.052170 -0.431982
		CHANNELS 3 Zrotation Yrotation Xrotation
		JOINT RightLeg
		{
			OFFSET -3.829005 -38.256897 -0.885003
			CHANNELS 3 Zrotation Yrotation Xrotation
			JOINT RightFoot
			{
				OFFSET 1.577377 -39.841461 -4.231180
				CHANNELS 3 Zrotation Yrotation Xrotation
				JOINT RightToe
				{
					OFFSET -2.537174 -4.814398 12.334795
					CHANNELS 3 Zrotation Yrotation Xrotation
					End Site
					{
						OFFSET 0.000000 0.000000 0.000000
					}
				}
			}
		}
	}
	JOINT Spine
	{
		OFFSET -0.253288 10.896323 -2.669631
		CHANNELS 3 Zrotation Yrotation Xrotation
		JOINT Spine1
		{
			OFFSET 0.548704 13.518043 0.109247
			CHANNELS 3 Zrotation Yrotation Xrotation
			JOINT Spine2
			{
				OFFSET 0.145701 5.292222 2.542457
				CHANNELS 3 Zrotation Yrotation Xrotation
				JOINT Neck
				{
					OFFSET -0.277840 21.387037 -4.285703
					CHANNELS 3 Zrotation Yrotation Xrotation
					JOINT Head
					{
						OFFSET 0.515184 6.496960 5.134897
						CHANNELS 3 Zrotation Yrotation Xrotation
						End Site
						{
							OFFSET 0.000000 0.000000 0.000000
						}
					}
				}
				JOINT LeftShoulder
				{
					OFFSET 7.884473 12.174932 -3.408961
					CHANNELS 3 Zrotation Yrotation Xrotation
					JOINT LeftArm
					{
						OFFSET 9.097692 3.046888 -0.886815
						CHANNELS 3 Zrotation Yrotation Xrotation
						JOINT LeftForeArm
						{
							OFFSET 25.961220 -1.277207 -2.745643
							CHANNELS 3 Zrotation Yrotation Xrotation
							JOINT LeftHand
							{
								OFFSET 24.923361 0.898606 -0.117091
								CHANNELS 3 Zrotation Yrotation Xrotation
								End Site
								{
									OFFSET 0.000000 0.000000 0.000000
								}
							}
						}
					}
				}
				JOINT RightShoulder
				{
					OFFSET -8.175920 11.883285 -3.861528
					CHANNELS 3 Zrotation Yrotation Xrotation
					JOINT RightArm
					{
						OFFSET -9.601238 3.255117 -0.914307
						CHANNELS 3 Zrotation Yrotation Xrotation
						JOINT RightForeArm
						{
							OFFSET -25.374195 -1.332924 -2.140099
							CHANNELS 3 Zrotation Yrotation Xrotation
							JOINT RightHand
							{
								OFFSET -25.529810 0.777228 -0.555919
								CHANNELS 3 Zrotation Yrotation Xrotation
								End Site
								{
									OFFSET 0.000000 0.000000 0.000000
								}
							}
						}
					}
				}
			}
		}
	}
}
MOTION
Frames: 16
Frame Time: 0.033333
-133.140366 112.042114 -84.122215 178.796664 -33.551379 177.418181 1.342996 0.171207 0.371132 -13.188930 -6.903474 42.844888 -2.579447 5.005983 -1.322432 0.920024 -1.172295 -0.352627 2.514275 0.198232 -12.773439 1.622793 -0.759220 11.996275 0.473512 -9.070946 -6.617213 1.753056 0.584624 -1.008843 -0.993498 -2.196587 12.368094 1.837295 -2.415435 -8.919252 0.465455 -2.711835 7.346580 0.460428 1.137571 -1.892706 -1.300754 -1.369496 3.696700 -20.205439 0.065685 -1.495382 -51.145064 -11.561256 15.061569 -5.636140 -23.237753 11.990735 3.765642 -7.105627 -4.100266 23.190330 0.706495 -3.605623 46.498345 1.908447 15.906239 1.881589 18.624281 2.754513 2.023701 1.721033 -1.760223 
-133.928543 111.904358 -88.803360 179.207618 -34.982065 177.002526 4.694852 0.882571 -10.120544 -11.583719 1.349062 57.704438 -1.932305 6.858251 -0.906589 1.255943 -1.471992 -0.500270 3.946771 -0.131758 -10.121905 2.041446 -1.123597 14.850151 -3.091805 -9.118003 -10.929772 1.739221 0.649528 -1.376183 0.390402 -0.902225 13.415171 1.806574 -2.577329 -9.519641 0.354012 -2.429765 7.538160 1.024204 0.240990 -2.204844 -1.224854 -1.950221 4.332159 -20.649222 0.109501 -1.370551 -50.113523 -10.882234 14.295080 -5.606619 -24.268851 13.586664 3.311763 -6.111323 -4.162056 23.567604 1.612809 -3.374672 45.532261 3.559993 15.080766 2.254877 19.637976 4.017237 1.035363 1.964648 -2.438059 
-134.604279 111.830917 -93.090446 178.214546 -35.849074 176.549699 5.512363 1.250623 -18.570681 -8.814554 5.678863 62.577803 0.647369 9.879325 -6.018946 1.490118 -1.622106 -0.511657 4.031861 -1.428131 -5.397953 2.274022 0.107781 14.841980 -3.968295 -8.481701 -14.750046 1.676666 0.786005 -1.534544 1.004004 1.220183 14.275773 1.311467 -2.719743 -9.752023 0.173918 -1.633074 7.644041 1.439498 -0.691275 -1.727127 -1.126783 -2.808787 5.138093 -21.070193 0.262191 -1.280420 -49.006454 -10.066465 13.030425 -4.944859 -25.409743 12.873789 3.958883 -5.606519 -3.576343 23.527360 2.836278 -2.937391 45.167193 5.304645 14.380405 2.888801 20.266425 3.931615 -1.439331 2.890336 -1.363932 
-137.675766 111.847092 -98.456238 176.803925 -36.307221 176.941837 5.368788 1.251808 -23.522369 -7.803695 6.764081 54.173248 1.060628 11.181780 -8.153011 1.723524 -1.509022 -0.507751 3.132559 -3.056939 0.357319 1.704781 1.150521 14.124171 -3.851758 -7.770488 -17.819476 1.698107 0.770935 -1.539685 1.280641 3.075159 14.584869 0.652993 -2.788827 -9.446345 -0.074145 -0.947768 7.400151 1.812037 -0.449273 -1.423388 -1.186286 -3.382260 5.350405 -21.267659 0.913604 -1.363360 -48.228086 -9.121199 12.376054 -4.401934 -25.762714 11.296786 5.291787 -5.488476 -3.185642 22.863796 3.684083 -2.995051 45.637728 6.832444 14.619780 3.449566 21.261808 3.017143 -3.660894 3.798554 -2.038054 
-138.960541 111.766815 -102.545425 175.152762 -36.011738 177.577734 4.988661 0.794295 -24.801988 -5.473969 5.531028 37.050268 0.676193 11.992647 -6.801505 1.939836 -1.307318 -0.355522 1.670380 -4.867554 6.122888 1.411263 2.129149 12.184741 -2.853335 -4.109857 -20.198542 1.777925 0.778263 -1.390864 1.449394 4.749754 14.667429 -0.132434 -2.534814 -9.100057 0.104853 -0.315691 7.355624 2.163451 0.073974 -1.166931 -1.283023 -4.627841 5.800752 -21.367360 1.485562 -1.605382 -47.766671 -8.116509 12.274166 -4.467309 -25.222328 11.096690 5.978769 -5.386308 -3.065955 22.601574 4.114115 -2.890267 45.650662 8.021188 14.864695 3.362977 22.794235 2.241360 -3.796419 4.065445 -3.313608 
-140.738495 111.574814 -106.739990 175.345858 -35.978659 177.772111 4.273386 1.663536 -21.192337 -3.652851 2.527089 14.127869 -1.114965 11.075850 -5.727218 2.204346 -1.188112 -0.257153 0.670465 -6.191810 11.450138 1.362704 3.274207 9.708271 -1.320526 0.101338 -20.017147 2.187299 0.821797 -0.759042 2.004868 5.124852 13.922181 -0.820754 -2.152195 -8.812497 0.623859 -0.145748 7.426395 2.043659 0.368217 -0.560905 -1.226777 -4.727629 5.787730 -21.641469 2.182996 -1.994320 -47.754540 -6.892203 12.016675 -4.395564 -24.478268 10.945687 5.468246 -5.518726 -4.035916 22.511601 4.143467 -2.966439 45.716080 9.095283 15.028224 2.944041 24.044135 1.868080 -3.444877 4.341412 -3.750110 
-142.903488 111.190750 -111.040192 175.714888 -35.564736 178.939105 3.429810 1.751302 -18.914023 -3.028808 1.860346 6.839324 -1.166755 11.303574 -3.874726 2.176195 -1.176087 -0.370906 -0.757676 -6.476367 13.447988 1.568525 4.155915 12.086562 0.688902 3.501469 -18.887553 2.274653 0.763259 -0.569785 1.801794 5.512489 12.113699 -0.957876 -2.088502 -8.491955 0.904901 -0.062811 7.452324 2.235721 0.711257 -0.293643 -0.993312 -4.458757 6.006807 -21.769784 2.498642 -1.692956 -47.866951 -5.935683 11.963798 -4.571660 -23.385300 10.606942 4.911641 -5.390942 -3.902594 22.439265 4.137430 -3.137158 45.934726 9.312633 15.235048 2.907264 24.445624 1.890354 -3.140976 4.273294 -3.453029 
-145.170959 111.046066 -115.228561 175.368090 -34.945826 -179.897677 1.903016 0.072498 -17.122406 -3.577626 1.140856 8.797729 1.002172 12.212297 -3.025932 2.095672 -1.114097 -0.407108 -3.197712 -4.979019 12.109275 1.591102 4.478378 21.431502 3.453202 -4.999497 -8.062695 2.252303 0.696584 -0.505018 0.587124 5.395681 9.629179 -0.528697 -1.926545 -8.266340 0.916476 -0.183645 7.510170 2.544184 0.958447 -0.225567 -0.979200 -3.392968 6.690701 -22.069440 2.788941 -1.208607 -48.112655 -5.357877 12.137510 -4.513904 -21.608403 9.764198 4.226869 -5.284703 -3.734119 23.283047 3.665906 -3.347839 45.913702 8.626116 15.939895 2.529970 23.226057 0.915779 -2.720332 4.090372 -3.125992 
-147.373779 111.402054 -119.434677 175.090576 -35.349477 -179.909269 0.223935 -1.555182 -14.230312 -4.394645 -0.571160 12.251040 4.073986 13.295250 -5.349472 1.891471 -1.017453 -0.454460 -5.108308 -3.090024 5.813542 2.549743 3.348570 36.495198 4.808239 -7.882881 0.419616 2.038904 0.682987 -0.708255 -0.645992 4.204898 8.985585 0.035993 -1.435660 -8.533905 0.823081 -0.453884 7.627573 2.934175 1.609677 -0.606647 -1.048373 -1.884452 7.158048 -21.694321 2.640520 -1.026977 -48.633997 -5.236081 12.363178 -4.678338 -20.841557 9.230822 3.962059 -4.927948 -3.070667 23.698348 3.179457 -3.517032 45.820835 7.734255 16.433443 2.246330 22.110489 -0.089924 -1.566101 3.480265 -2.937038 
-149.469360 111.963425 -123.551231 175.255038 -37.052960 178.869104 -0.962045 -1.833428 -9.547983 -3.696516 -4.258557 12.634042 6.032564 15.652113 -8.083409 2.070454 -1.085434 -0.545803 -5.372464 -1.723502 -4.241201 2.557429 0.810895 52.808465 3.266639 -9.990861 1.945640 2.081086 0.926509 -0.557657 -1.109359 1.689508 9.826575 0.320122 -1.070306 -8.920010 0.686385 -1.079180 7.776151 3.208203 2.264830 -0.672926 -1.031397 -0.553464 7.130173 -21.433945 2.122076 -1.023069 -48.860905 -5.759432 12.422377 -5.132389 -21.162454 9.837229 4.799239 -4.436352 -3.124055 23.286376 3.110682 -3.705967 46.564780 6.323746 17.335574 2.100681 23.152457 0.229811 -1.831661 3.277947 -2.698555 
-155.252319 112.466217 -128.049576 176.129709 -39.241202 177.670641 -2.146391 -0.852119 -3.281694 -4.214413 -7.668349 12.008485 7.030455 17.098855 -12.112431 2.415989 -1.148794 -0.547941 -4.108268 -0.456325 -13.074995 2.263149 -1.639463 59.136393 0.958393 -11.707425 -2.456857 2.263973 0.995588 -0.305892 -1.235060 -0.807151 11.182739 0.561143 -1.052097 -9.270369 0.640540 -1.818712 8.086311 3.100822 3.061298 -0.973376 -1.178566 0.155372 6.812041 -21.253024 1.187353 -1.331162 -48.884652 -7.212811 12.556511 -5.165680 -20.735948 9.963800 5.271095 -4.556273 -2.843245 22.860504 2.714338 -4.176165 47.501065 5.148115 17.628876 1.673422 24.456862 0.971771 -1.544972 3.095400 -2.425440 
-161.255951 112.821030 -133.171814 176.957869 -42.028859 177.031117 -2.282395 1.167101 3.115786 -4.294396 -10.509069 10.553555 5.910528 16.322383 -14.552291 2.602731 -1.282024 -0.573853 -2.274587 0.476078 -18.168016 1.809326 -3.579110 52.646789 0.753883 -12.348512 -8.548506 2.483291 0.912281 -0.377026 -1.290489 -2.808274 12.427512 0.899110 -1.430362 -9.558623 0.782012 -2.608138 8.187121 2.853642 3.617221 -1.308677 -1.458363 0.413014 6.529431 -20.962923 0.141172 -1.588358 -49.342574 -8.791489 12.674016 -5.238111 -19.548088 9.820429 5.293561 -4.837711 -2.162686 22.410884 2.377998 -4.582140 48.067958 3.925660 17.691922 1.952180 25.392958 1.443437 -0.844181 2.749153 -3.616581 
-166.495087 112.750183 -137.043579 177.804564 -43.748837 176.769178 -1.641854 3.038173 8.238089 -4.184977 -12.413702 8.603435 4.556013 14.568357 -15.843765 2.208206 -1.362304 -0.603527 -0.178546 0.783610 -19.752722 2.117854 -4.460089 37.232498 1.686195 -11.811601 -10.826846 2.618961 0.876948 -0.729821 -1.766556 -3.751592 13.026899 1.205784 -1.607539 -9.703211 0.985303 -3.048890 7.930615 2.725721 3.915313 -1.642511 -0.895227 0.331288 6.122731 -20.638545 -0.629956 -1.912645 -49.955161 -10.135734 12.946635 -5.232742 -18.688550 9.586521 5.573160 -5.636452 -2.495001 22.158954 2.068690 -4.750893 48.503585 3.160716 17.912384 1.965593 25.317616 1.223784 -0.649075 2.593269 -4.790619 
-171.132538 112.204407 -139.446030 178.368055 -45.496417 176.354876 -1.361344 4.383639 11.987699 -4.192446 -13.561592 8.140019 3.775305 12.608153 -17.147082 1.540180 -1.310693 -0.524015 1.593744 0.631040 -18.323019 2.086217 -3.570416 19.853001 3.408699 -10.727596 -9.968682 2.532628 0.775916 -0.945270 -2.806651 -4.155390 13.332542 1.781009 -1.737466 -9.838685 1.139539 -3.313779 7.473088 2.358121 3.140894 -1.805576 0.145130 0.503013 6.216905 -19.968446 -1.070455 -1.916074 -50.871378 -11.214037 13.766330 -5.452951 -18.333978 11.034685 5.849942 -6.898883 -2.153101 21.751528 1.601668 -4.830656 49.316872 2.705316 18.568599 1.998117 23.666342 1.354610 -1.112561 2.990260 -4.428202 
-173.451752 111.407043 -143.342316 178.047907 -48.233922 176.561503 -1.009750 4.487462 14.175989 -4.874191 -14.712952 11.198598 2.499885 11.990927 -16.545919 1.178063 -1.205268 -0.435780 2.998444 0.550244 -16.617390 1.909630 -3.081099 12.105789 3.630921 -10.062827 -9.231578 2.554637 0.707795 -0.925840 -3.169162 -4.327426 12.653267 1.958500 -1.943670 -9.597108 1.016791 -3.527621 7.154922 1.963560 2.037970 -1.638105 0.580746 0.047843 6.367294 -19.797448 -1.154879 -1.836037 -51.381337 -12.552325 14.520652 -5.809370 -18.838768 12.976453 5.691453 -7.690525 -1.717308 21.731825 0.772583 -4.981341 49.567055 2.037048 18.580316 1.929723 22.020769 1.574996 -1.320633 3.145427 -3.887456 
-175.958008 110.655045 -147.169144 177.110644 -50.478952 177.561259 -0.344426 3.179540 12.493536 -8.401237 -14.064534 23.235251 -1.354919 7.421640 -10.131635 1.144317 -1.201100 -0.370903 4.256793 0.917949 -15.355656 2.178233 -3.631211 14.835691 1.428820 -10.386002 -9.640451 2.352908 0.680509 -0.991686 -2.478663 -4.214035 11.687161 1.768329 -2.163079 -9.150394 0.587942 -3.574392 6.919172 1.692250 1.673922 -1.370057 0.172882 -0.609644 6.734670 -20.741240 -0.871732 -1.538368 -51.013005 -12.666998 14.674597 -5.791427 -19.196357 13.562813 5.200190 -7.417063 -0.972174 22.670688 0.660622 -4.799440 48.775851 1.980029 18.041664 2.276067 19.845106 2.679388 -0.714032 2.798757 -3.414352 
